<mxfile host="app.diagrams.net" agent="Mozilla/5.0 (X11; Linux x86_64) AppleWebKit/537.36 (KHTML, like Gecko) Chrome/130.0.0.0 Safari/537.36" version="24.8.2">
  <diagram name="Página-1" id="IljfAgMPaN5JmvjusORy">
    <mxGraphModel dx="3807" dy="2226" grid="1" gridSize="10" guides="1" tooltips="1" connect="1" arrows="1" fold="1" page="1" pageScale="1" pageWidth="2336" pageHeight="1654" math="0" shadow="0">
      <root>
        <mxCell id="0" />
        <mxCell id="1" parent="0" />
        <mxCell id="nyaTjZ3TQLkW-7M9qu4o-1" value="Entity" style="swimlane;fontStyle=1;align=center;verticalAlign=top;childLayout=stackLayout;horizontal=1;startSize=26;horizontalStack=0;resizeParent=1;resizeParentMax=0;resizeLast=0;collapsible=1;marginBottom=0;whiteSpace=wrap;html=1;" parent="1" vertex="1">
          <mxGeometry x="320" y="-90" width="240" height="138" as="geometry" />
        </mxCell>
        <mxCell id="nyaTjZ3TQLkW-7M9qu4o-2" value="+ Id: Guid" style="text;strokeColor=none;fillColor=none;align=left;verticalAlign=top;spacingLeft=4;spacingRight=4;overflow=hidden;rotatable=0;points=[[0,0.5],[1,0.5]];portConstraint=eastwest;whiteSpace=wrap;html=1;" parent="nyaTjZ3TQLkW-7M9qu4o-1" vertex="1">
          <mxGeometry y="26" width="240" height="26" as="geometry" />
        </mxCell>
        <mxCell id="nyaTjZ3TQLkW-7M9qu4o-3" value="+ DataDeCadastro: DateTime" style="text;strokeColor=none;fillColor=none;align=left;verticalAlign=top;spacingLeft=4;spacingRight=4;overflow=hidden;rotatable=0;points=[[0,0.5],[1,0.5]];portConstraint=eastwest;whiteSpace=wrap;html=1;" parent="nyaTjZ3TQLkW-7M9qu4o-1" vertex="1">
          <mxGeometry y="52" width="240" height="26" as="geometry" />
        </mxCell>
        <mxCell id="nyaTjZ3TQLkW-7M9qu4o-4" value="+ DataDeAlteracao: DateTime" style="text;strokeColor=none;fillColor=none;align=left;verticalAlign=top;spacingLeft=4;spacingRight=4;overflow=hidden;rotatable=0;points=[[0,0.5],[1,0.5]];portConstraint=eastwest;whiteSpace=wrap;html=1;" parent="nyaTjZ3TQLkW-7M9qu4o-1" vertex="1">
          <mxGeometry y="78" width="240" height="26" as="geometry" />
        </mxCell>
        <mxCell id="nyaTjZ3TQLkW-7M9qu4o-5" value="" style="line;strokeWidth=1;fillColor=none;align=left;verticalAlign=middle;spacingTop=-1;spacingLeft=3;spacingRight=3;rotatable=0;labelPosition=right;points=[];portConstraint=eastwest;strokeColor=inherit;" parent="nyaTjZ3TQLkW-7M9qu4o-1" vertex="1">
          <mxGeometry y="104" width="240" height="8" as="geometry" />
        </mxCell>
        <mxCell id="nyaTjZ3TQLkW-7M9qu4o-6" value="+ ObterDataFormatada(): string" style="text;strokeColor=none;fillColor=none;align=left;verticalAlign=top;spacingLeft=4;spacingRight=4;overflow=hidden;rotatable=0;points=[[0,0.5],[1,0.5]];portConstraint=eastwest;whiteSpace=wrap;html=1;" parent="nyaTjZ3TQLkW-7M9qu4o-1" vertex="1">
          <mxGeometry y="112" width="240" height="26" as="geometry" />
        </mxCell>
        <mxCell id="nyaTjZ3TQLkW-7M9qu4o-78" value="" style="group" parent="1" vertex="1" connectable="0">
          <mxGeometry x="980" y="-80" width="710" height="500" as="geometry" />
        </mxCell>
        <mxCell id="nyaTjZ3TQLkW-7M9qu4o-75" value="USUÁRIOS" style="shape=module;align=left;spacingLeft=20;align=center;verticalAlign=top;whiteSpace=wrap;html=1;" parent="nyaTjZ3TQLkW-7M9qu4o-78" vertex="1">
          <mxGeometry width="710" height="500" as="geometry" />
        </mxCell>
        <mxCell id="nyaTjZ3TQLkW-7M9qu4o-8" value="Usuario" style="swimlane;fontStyle=1;align=center;verticalAlign=top;childLayout=stackLayout;horizontal=1;startSize=26;horizontalStack=0;resizeParent=1;resizeParentMax=0;resizeLast=0;collapsible=1;marginBottom=0;whiteSpace=wrap;html=1;" parent="nyaTjZ3TQLkW-7M9qu4o-78" vertex="1">
          <mxGeometry x="110" y="38" width="210" height="164" as="geometry" />
        </mxCell>
        <mxCell id="nyaTjZ3TQLkW-7M9qu4o-9" value="+ Nome: string" style="text;strokeColor=none;fillColor=none;align=left;verticalAlign=top;spacingLeft=4;spacingRight=4;overflow=hidden;rotatable=0;points=[[0,0.5],[1,0.5]];portConstraint=eastwest;whiteSpace=wrap;html=1;" parent="nyaTjZ3TQLkW-7M9qu4o-8" vertex="1">
          <mxGeometry y="26" width="210" height="26" as="geometry" />
        </mxCell>
        <mxCell id="nyaTjZ3TQLkW-7M9qu4o-10" value="+ Cpf: Cpf" style="text;strokeColor=none;fillColor=none;align=left;verticalAlign=top;spacingLeft=4;spacingRight=4;overflow=hidden;rotatable=0;points=[[0,0.5],[1,0.5]];portConstraint=eastwest;whiteSpace=wrap;html=1;" parent="nyaTjZ3TQLkW-7M9qu4o-8" vertex="1">
          <mxGeometry y="52" width="210" height="26" as="geometry" />
        </mxCell>
        <mxCell id="nyaTjZ3TQLkW-7M9qu4o-11" value="+ DataDeNascimento: Datetime" style="text;strokeColor=none;fillColor=none;align=left;verticalAlign=top;spacingLeft=4;spacingRight=4;overflow=hidden;rotatable=0;points=[[0,0.5],[1,0.5]];portConstraint=eastwest;whiteSpace=wrap;html=1;" parent="nyaTjZ3TQLkW-7M9qu4o-8" vertex="1">
          <mxGeometry y="78" width="210" height="26" as="geometry" />
        </mxCell>
        <mxCell id="nyaTjZ3TQLkW-7M9qu4o-12" value="+ Foto: string" style="text;strokeColor=none;fillColor=none;align=left;verticalAlign=top;spacingLeft=4;spacingRight=4;overflow=hidden;rotatable=0;points=[[0,0.5],[1,0.5]];portConstraint=eastwest;whiteSpace=wrap;html=1;" parent="nyaTjZ3TQLkW-7M9qu4o-8" vertex="1">
          <mxGeometry y="104" width="210" height="26" as="geometry" />
        </mxCell>
        <mxCell id="nyaTjZ3TQLkW-7M9qu4o-13" value="" style="line;strokeWidth=1;fillColor=none;align=left;verticalAlign=middle;spacingTop=-1;spacingLeft=3;spacingRight=3;rotatable=0;labelPosition=right;points=[];portConstraint=eastwest;strokeColor=inherit;" parent="nyaTjZ3TQLkW-7M9qu4o-8" vertex="1">
          <mxGeometry y="130" width="210" height="8" as="geometry" />
        </mxCell>
        <mxCell id="nyaTjZ3TQLkW-7M9qu4o-14" value="+ Calcular&lt;i&gt;Idade&lt;/i&gt;(): int" style="text;strokeColor=none;fillColor=none;align=left;verticalAlign=top;spacingLeft=4;spacingRight=4;overflow=hidden;rotatable=0;points=[[0,0.5],[1,0.5]];portConstraint=eastwest;whiteSpace=wrap;html=1;" parent="nyaTjZ3TQLkW-7M9qu4o-8" vertex="1">
          <mxGeometry y="138" width="210" height="26" as="geometry" />
        </mxCell>
        <mxCell id="nyaTjZ3TQLkW-7M9qu4o-15" value="Endereco" style="swimlane;fontStyle=1;align=center;verticalAlign=top;childLayout=stackLayout;horizontal=1;startSize=26;horizontalStack=0;resizeParent=1;resizeParentMax=0;resizeLast=0;collapsible=1;marginBottom=0;whiteSpace=wrap;html=1;" parent="nyaTjZ3TQLkW-7M9qu4o-78" vertex="1">
          <mxGeometry x="450" y="38" width="210" height="190" as="geometry" />
        </mxCell>
        <mxCell id="nyaTjZ3TQLkW-7M9qu4o-16" value="+ Numero: string" style="text;strokeColor=none;fillColor=none;align=left;verticalAlign=top;spacingLeft=4;spacingRight=4;overflow=hidden;rotatable=0;points=[[0,0.5],[1,0.5]];portConstraint=eastwest;whiteSpace=wrap;html=1;" parent="nyaTjZ3TQLkW-7M9qu4o-15" vertex="1">
          <mxGeometry y="26" width="210" height="26" as="geometry" />
        </mxCell>
        <mxCell id="nyaTjZ3TQLkW-7M9qu4o-17" value="+ Logradouro: string" style="text;strokeColor=none;fillColor=none;align=left;verticalAlign=top;spacingLeft=4;spacingRight=4;overflow=hidden;rotatable=0;points=[[0,0.5],[1,0.5]];portConstraint=eastwest;whiteSpace=wrap;html=1;" parent="nyaTjZ3TQLkW-7M9qu4o-15" vertex="1">
          <mxGeometry y="52" width="210" height="26" as="geometry" />
        </mxCell>
        <mxCell id="nyaTjZ3TQLkW-7M9qu4o-18" value="+ Complemento: string" style="text;strokeColor=none;fillColor=none;align=left;verticalAlign=top;spacingLeft=4;spacingRight=4;overflow=hidden;rotatable=0;points=[[0,0.5],[1,0.5]];portConstraint=eastwest;whiteSpace=wrap;html=1;" parent="nyaTjZ3TQLkW-7M9qu4o-15" vertex="1">
          <mxGeometry y="78" width="210" height="26" as="geometry" />
        </mxCell>
        <mxCell id="nyaTjZ3TQLkW-7M9qu4o-19" value="+ Bairro: string" style="text;strokeColor=none;fillColor=none;align=left;verticalAlign=top;spacingLeft=4;spacingRight=4;overflow=hidden;rotatable=0;points=[[0,0.5],[1,0.5]];portConstraint=eastwest;whiteSpace=wrap;html=1;" parent="nyaTjZ3TQLkW-7M9qu4o-15" vertex="1">
          <mxGeometry y="104" width="210" height="26" as="geometry" />
        </mxCell>
        <mxCell id="nyaTjZ3TQLkW-7M9qu4o-20" value="+ Cep: Cep" style="text;strokeColor=none;fillColor=none;align=left;verticalAlign=top;spacingLeft=4;spacingRight=4;overflow=hidden;rotatable=0;points=[[0,0.5],[1,0.5]];portConstraint=eastwest;whiteSpace=wrap;html=1;" parent="nyaTjZ3TQLkW-7M9qu4o-15" vertex="1">
          <mxGeometry y="130" width="210" height="26" as="geometry" />
        </mxCell>
        <mxCell id="nyaTjZ3TQLkW-7M9qu4o-21" value="+ Estado: string" style="text;strokeColor=none;fillColor=none;align=left;verticalAlign=top;spacingLeft=4;spacingRight=4;overflow=hidden;rotatable=0;points=[[0,0.5],[1,0.5]];portConstraint=eastwest;whiteSpace=wrap;html=1;" parent="nyaTjZ3TQLkW-7M9qu4o-15" vertex="1">
          <mxGeometry y="156" width="210" height="26" as="geometry" />
        </mxCell>
        <mxCell id="nyaTjZ3TQLkW-7M9qu4o-22" value="" style="line;strokeWidth=1;fillColor=none;align=left;verticalAlign=middle;spacingTop=-1;spacingLeft=3;spacingRight=3;rotatable=0;labelPosition=right;points=[];portConstraint=eastwest;strokeColor=inherit;" parent="nyaTjZ3TQLkW-7M9qu4o-15" vertex="1">
          <mxGeometry y="182" width="210" height="8" as="geometry" />
        </mxCell>
        <mxCell id="nyaTjZ3TQLkW-7M9qu4o-27" value="Login" style="swimlane;fontStyle=1;align=center;verticalAlign=top;childLayout=stackLayout;horizontal=1;startSize=26;horizontalStack=0;resizeParent=1;resizeParentMax=0;resizeLast=0;collapsible=1;marginBottom=0;whiteSpace=wrap;html=1;" parent="nyaTjZ3TQLkW-7M9qu4o-78" vertex="1">
          <mxGeometry x="110" y="338" width="210" height="112" as="geometry" />
        </mxCell>
        <mxCell id="nyaTjZ3TQLkW-7M9qu4o-28" value="+ Email: Email" style="text;strokeColor=none;fillColor=none;align=left;verticalAlign=top;spacingLeft=4;spacingRight=4;overflow=hidden;rotatable=0;points=[[0,0.5],[1,0.5]];portConstraint=eastwest;whiteSpace=wrap;html=1;" parent="nyaTjZ3TQLkW-7M9qu4o-27" vertex="1">
          <mxGeometry y="26" width="210" height="26" as="geometry" />
        </mxCell>
        <mxCell id="nyaTjZ3TQLkW-7M9qu4o-29" value="+ Senha: Senha" style="text;strokeColor=none;fillColor=none;align=left;verticalAlign=top;spacingLeft=4;spacingRight=4;overflow=hidden;rotatable=0;points=[[0,0.5],[1,0.5]];portConstraint=eastwest;whiteSpace=wrap;html=1;" parent="nyaTjZ3TQLkW-7M9qu4o-27" vertex="1">
          <mxGeometry y="52" width="210" height="26" as="geometry" />
        </mxCell>
        <mxCell id="nyaTjZ3TQLkW-7M9qu4o-30" value="+ Hash: Guid" style="text;strokeColor=none;fillColor=none;align=left;verticalAlign=top;spacingLeft=4;spacingRight=4;overflow=hidden;rotatable=0;points=[[0,0.5],[1,0.5]];portConstraint=eastwest;whiteSpace=wrap;html=1;" parent="nyaTjZ3TQLkW-7M9qu4o-27" vertex="1">
          <mxGeometry y="78" width="210" height="26" as="geometry" />
        </mxCell>
        <mxCell id="nyaTjZ3TQLkW-7M9qu4o-31" value="" style="line;strokeWidth=1;fillColor=none;align=left;verticalAlign=middle;spacingTop=-1;spacingLeft=3;spacingRight=3;rotatable=0;labelPosition=right;points=[];portConstraint=eastwest;strokeColor=inherit;" parent="nyaTjZ3TQLkW-7M9qu4o-27" vertex="1">
          <mxGeometry y="104" width="210" height="8" as="geometry" />
        </mxCell>
        <mxCell id="nyaTjZ3TQLkW-7M9qu4o-32" value="1" style="endArrow=open;html=1;endSize=12;startArrow=diamondThin;startSize=14;startFill=1;align=left;verticalAlign=bottom;rounded=0;entryX=0.5;entryY=0;entryDx=0;entryDy=0;exitX=0.5;exitY=1.038;exitDx=0;exitDy=0;exitPerimeter=0;" parent="nyaTjZ3TQLkW-7M9qu4o-78" source="nyaTjZ3TQLkW-7M9qu4o-14" target="nyaTjZ3TQLkW-7M9qu4o-27" edge="1">
          <mxGeometry x="-1" y="3" relative="1" as="geometry">
            <mxPoint x="390" y="359" as="sourcePoint" />
            <mxPoint x="543" y="358" as="targetPoint" />
          </mxGeometry>
        </mxCell>
        <mxCell id="nyaTjZ3TQLkW-7M9qu4o-33" value="1" style="endArrow=open;html=1;endSize=12;startArrow=diamondThin;startSize=14;startFill=1;align=left;verticalAlign=bottom;rounded=0;entryX=-0.01;entryY=0.192;entryDx=0;entryDy=0;entryPerimeter=0;exitX=1.019;exitY=0.231;exitDx=0;exitDy=0;exitPerimeter=0;" parent="nyaTjZ3TQLkW-7M9qu4o-78" source="nyaTjZ3TQLkW-7M9qu4o-11" target="nyaTjZ3TQLkW-7M9qu4o-18" edge="1">
          <mxGeometry x="-1" y="3" relative="1" as="geometry">
            <mxPoint x="100" y="370" as="sourcePoint" />
            <mxPoint x="260" y="370" as="targetPoint" />
          </mxGeometry>
        </mxCell>
        <mxCell id="nyaTjZ3TQLkW-7M9qu4o-26" value="Extends" style="endArrow=block;endSize=16;endFill=0;html=1;rounded=0;entryX=1.017;entryY=0.154;entryDx=0;entryDy=0;entryPerimeter=0;exitX=-0.024;exitY=0.115;exitDx=0;exitDy=0;exitPerimeter=0;" parent="1" source="nyaTjZ3TQLkW-7M9qu4o-10" target="nyaTjZ3TQLkW-7M9qu4o-4" edge="1">
          <mxGeometry width="160" relative="1" as="geometry">
            <mxPoint x="910" y="320" as="sourcePoint" />
            <mxPoint x="750" y="320" as="targetPoint" />
          </mxGeometry>
        </mxCell>
        <mxCell id="nyaTjZ3TQLkW-7M9qu4o-112" value="" style="group" parent="1" vertex="1" connectable="0">
          <mxGeometry x="-1110" y="200" width="1290" height="770" as="geometry" />
        </mxCell>
        <mxCell id="nyaTjZ3TQLkW-7M9qu4o-76" value="GESTÃO DE ALUNOS, TURMAS, PROFESSORES" style="shape=module;align=left;spacingLeft=20;align=center;verticalAlign=top;whiteSpace=wrap;html=1;" parent="nyaTjZ3TQLkW-7M9qu4o-112" vertex="1">
          <mxGeometry width="1290" height="770" as="geometry" />
        </mxCell>
        <mxCell id="0206CihBlVpD9PxTzJTC-7" value="Turma" style="swimlane;fontStyle=1;align=center;verticalAlign=top;childLayout=stackLayout;horizontal=1;startSize=26;horizontalStack=0;resizeParent=1;resizeParentMax=0;resizeLast=0;collapsible=1;marginBottom=0;whiteSpace=wrap;html=1;" parent="nyaTjZ3TQLkW-7M9qu4o-112" vertex="1">
          <mxGeometry x="730" y="65.22950819672133" width="200" height="200.19672131147541" as="geometry" />
        </mxCell>
        <mxCell id="0206CihBlVpD9PxTzJTC-8" value="+ Professor: Usuario" style="text;strokeColor=none;fillColor=none;align=left;verticalAlign=top;spacingLeft=4;spacingRight=4;overflow=hidden;rotatable=0;points=[[0,0.5],[1,0.5]];portConstraint=eastwest;whiteSpace=wrap;html=1;" parent="0206CihBlVpD9PxTzJTC-7" vertex="1">
          <mxGeometry y="26" width="200" height="32.81967213114754" as="geometry" />
        </mxCell>
        <mxCell id="nyaTjZ3TQLkW-7M9qu4o-47" value="+ Nome: String" style="text;strokeColor=none;fillColor=none;align=left;verticalAlign=top;spacingLeft=4;spacingRight=4;overflow=hidden;rotatable=0;points=[[0,0.5],[1,0.5]];portConstraint=eastwest;whiteSpace=wrap;html=1;" parent="0206CihBlVpD9PxTzJTC-7" vertex="1">
          <mxGeometry y="58.81967213114754" width="200" height="32.81967213114754" as="geometry" />
        </mxCell>
        <mxCell id="nyaTjZ3TQLkW-7M9qu4o-48" value="+ Escola: Escola" style="text;strokeColor=none;fillColor=none;align=left;verticalAlign=top;spacingLeft=4;spacingRight=4;overflow=hidden;rotatable=0;points=[[0,0.5],[1,0.5]];portConstraint=eastwest;whiteSpace=wrap;html=1;" parent="0206CihBlVpD9PxTzJTC-7" vertex="1">
          <mxGeometry y="91.63934426229508" width="200" height="32.81967213114754" as="geometry" />
        </mxCell>
        <mxCell id="nyaTjZ3TQLkW-7M9qu4o-73" value="+ AnoEscolar: AnoEscolar" style="text;strokeColor=none;fillColor=none;align=left;verticalAlign=top;spacingLeft=4;spacingRight=4;overflow=hidden;rotatable=0;points=[[0,0.5],[1,0.5]];portConstraint=eastwest;whiteSpace=wrap;html=1;" parent="0206CihBlVpD9PxTzJTC-7" vertex="1">
          <mxGeometry y="124.45901639344262" width="200" height="32.81967213114754" as="geometry" />
        </mxCell>
        <mxCell id="0206CihBlVpD9PxTzJTC-9" value="" style="line;strokeWidth=1;fillColor=none;align=left;verticalAlign=middle;spacingTop=-1;spacingLeft=3;spacingRight=3;rotatable=0;labelPosition=right;points=[];portConstraint=eastwest;strokeColor=inherit;" parent="0206CihBlVpD9PxTzJTC-7" vertex="1">
          <mxGeometry y="157.27868852459017" width="200" height="10.098360655737705" as="geometry" />
        </mxCell>
        <mxCell id="0206CihBlVpD9PxTzJTC-10" value="+ Adicionar(Enturmamento): void" style="text;strokeColor=none;fillColor=none;align=left;verticalAlign=top;spacingLeft=4;spacingRight=4;overflow=hidden;rotatable=0;points=[[0,0.5],[1,0.5]];portConstraint=eastwest;whiteSpace=wrap;html=1;" parent="0206CihBlVpD9PxTzJTC-7" vertex="1">
          <mxGeometry y="167.37704918032787" width="200" height="32.81967213114754" as="geometry" />
        </mxCell>
        <mxCell id="0206CihBlVpD9PxTzJTC-17" value="Enturmamento" style="swimlane;fontStyle=1;align=center;verticalAlign=top;childLayout=stackLayout;horizontal=1;startSize=26;horizontalStack=0;resizeParent=1;resizeParentMax=0;resizeLast=0;collapsible=1;marginBottom=0;whiteSpace=wrap;html=1;" parent="nyaTjZ3TQLkW-7M9qu4o-112" vertex="1">
          <mxGeometry x="370" y="443.9180327868853" width="190" height="167.37704918032787" as="geometry" />
        </mxCell>
        <mxCell id="0206CihBlVpD9PxTzJTC-18" value="+ Aluno: Usuario" style="text;strokeColor=none;fillColor=none;align=left;verticalAlign=top;spacingLeft=4;spacingRight=4;overflow=hidden;rotatable=0;points=[[0,0.5],[1,0.5]];portConstraint=eastwest;whiteSpace=wrap;html=1;" parent="0206CihBlVpD9PxTzJTC-17" vertex="1">
          <mxGeometry y="26" width="190" height="32.81967213114754" as="geometry" />
        </mxCell>
        <mxCell id="nyaTjZ3TQLkW-7M9qu4o-44" value="+ Turma: Turma" style="text;strokeColor=none;fillColor=none;align=left;verticalAlign=top;spacingLeft=4;spacingRight=4;overflow=hidden;rotatable=0;points=[[0,0.5],[1,0.5]];portConstraint=eastwest;whiteSpace=wrap;html=1;" parent="0206CihBlVpD9PxTzJTC-17" vertex="1">
          <mxGeometry y="58.81967213114754" width="190" height="32.81967213114754" as="geometry" />
        </mxCell>
        <mxCell id="nyaTjZ3TQLkW-7M9qu4o-45" value="+ Status: Situacao" style="text;strokeColor=none;fillColor=none;align=left;verticalAlign=top;spacingLeft=4;spacingRight=4;overflow=hidden;rotatable=0;points=[[0,0.5],[1,0.5]];portConstraint=eastwest;whiteSpace=wrap;html=1;" parent="0206CihBlVpD9PxTzJTC-17" vertex="1">
          <mxGeometry y="91.63934426229508" width="190" height="32.81967213114754" as="geometry" />
        </mxCell>
        <mxCell id="0206CihBlVpD9PxTzJTC-19" value="" style="line;strokeWidth=1;fillColor=none;align=left;verticalAlign=middle;spacingTop=-1;spacingLeft=3;spacingRight=3;rotatable=0;labelPosition=right;points=[];portConstraint=eastwest;strokeColor=inherit;" parent="0206CihBlVpD9PxTzJTC-17" vertex="1">
          <mxGeometry y="124.45901639344262" width="190" height="10.098360655737705" as="geometry" />
        </mxCell>
        <mxCell id="0206CihBlVpD9PxTzJTC-20" value="+ AtribuirStatus(status): void" style="text;strokeColor=none;fillColor=none;align=left;verticalAlign=top;spacingLeft=4;spacingRight=4;overflow=hidden;rotatable=0;points=[[0,0.5],[1,0.5]];portConstraint=eastwest;whiteSpace=wrap;html=1;" parent="0206CihBlVpD9PxTzJTC-17" vertex="1">
          <mxGeometry y="134.55737704918033" width="190" height="32.81967213114754" as="geometry" />
        </mxCell>
        <mxCell id="nyaTjZ3TQLkW-7M9qu4o-34" value="Relation" style="endArrow=open;html=1;endSize=12;startArrow=diamondThin;startSize=14;startFill=0;rounded=0;exitX=-0.007;exitY=0.959;exitDx=0;exitDy=0;exitPerimeter=0;entryX=0.423;entryY=-0.016;entryDx=0;entryDy=0;entryPerimeter=0;edgeStyle=orthogonalEdgeStyle;" parent="nyaTjZ3TQLkW-7M9qu4o-112" source="nyaTjZ3TQLkW-7M9qu4o-73" target="0206CihBlVpD9PxTzJTC-17" edge="1">
          <mxGeometry relative="1" as="geometry">
            <mxPoint x="1300" y="126.22950819672133" as="sourcePoint" />
            <mxPoint x="1460" y="126.22950819672133" as="targetPoint" />
          </mxGeometry>
        </mxCell>
        <mxCell id="nyaTjZ3TQLkW-7M9qu4o-35" value="1" style="edgeLabel;resizable=0;html=1;align=left;verticalAlign=top;" parent="nyaTjZ3TQLkW-7M9qu4o-34" connectable="0" vertex="1">
          <mxGeometry x="-1" relative="1" as="geometry" />
        </mxCell>
        <mxCell id="nyaTjZ3TQLkW-7M9qu4o-36" value="0..n" style="edgeLabel;resizable=0;html=1;align=right;verticalAlign=top;" parent="nyaTjZ3TQLkW-7M9qu4o-34" connectable="0" vertex="1">
          <mxGeometry x="1" relative="1" as="geometry" />
        </mxCell>
        <mxCell id="nyaTjZ3TQLkW-7M9qu4o-37" value="Usuario" style="swimlane;fontStyle=1;align=center;verticalAlign=top;childLayout=stackLayout;horizontal=1;startSize=26;horizontalStack=0;resizeParent=1;resizeParentMax=0;resizeLast=0;collapsible=1;marginBottom=0;whiteSpace=wrap;html=1;" parent="nyaTjZ3TQLkW-7M9qu4o-112" vertex="1">
          <mxGeometry x="700" y="443.9180327868853" width="210" height="167.37704918032787" as="geometry" />
        </mxCell>
        <mxCell id="nyaTjZ3TQLkW-7M9qu4o-38" value="+ Id: Guid" style="text;strokeColor=none;fillColor=none;align=left;verticalAlign=top;spacingLeft=4;spacingRight=4;overflow=hidden;rotatable=0;points=[[0,0.5],[1,0.5]];portConstraint=eastwest;whiteSpace=wrap;html=1;" parent="nyaTjZ3TQLkW-7M9qu4o-37" vertex="1">
          <mxGeometry y="26" width="210" height="32.81967213114754" as="geometry" />
        </mxCell>
        <mxCell id="nyaTjZ3TQLkW-7M9qu4o-39" value="+ Nome String" style="text;strokeColor=none;fillColor=none;align=left;verticalAlign=top;spacingLeft=4;spacingRight=4;overflow=hidden;rotatable=0;points=[[0,0.5],[1,0.5]];portConstraint=eastwest;whiteSpace=wrap;html=1;" parent="nyaTjZ3TQLkW-7M9qu4o-37" vertex="1">
          <mxGeometry y="58.81967213114754" width="210" height="32.81967213114754" as="geometry" />
        </mxCell>
        <mxCell id="nyaTjZ3TQLkW-7M9qu4o-40" value="+ DataDeNascimento: Datetime" style="text;strokeColor=none;fillColor=none;align=left;verticalAlign=top;spacingLeft=4;spacingRight=4;overflow=hidden;rotatable=0;points=[[0,0.5],[1,0.5]];portConstraint=eastwest;whiteSpace=wrap;html=1;" parent="nyaTjZ3TQLkW-7M9qu4o-37" vertex="1">
          <mxGeometry y="91.63934426229508" width="210" height="32.81967213114754" as="geometry" />
        </mxCell>
        <mxCell id="nyaTjZ3TQLkW-7M9qu4o-42" value="" style="line;strokeWidth=1;fillColor=none;align=left;verticalAlign=middle;spacingTop=-1;spacingLeft=3;spacingRight=3;rotatable=0;labelPosition=right;points=[];portConstraint=eastwest;strokeColor=inherit;" parent="nyaTjZ3TQLkW-7M9qu4o-37" vertex="1">
          <mxGeometry y="124.45901639344262" width="210" height="10.098360655737705" as="geometry" />
        </mxCell>
        <mxCell id="nyaTjZ3TQLkW-7M9qu4o-43" value="+ Calcular&lt;i&gt;Idade&lt;/i&gt;(): int" style="text;strokeColor=none;fillColor=none;align=left;verticalAlign=top;spacingLeft=4;spacingRight=4;overflow=hidden;rotatable=0;points=[[0,0.5],[1,0.5]];portConstraint=eastwest;whiteSpace=wrap;html=1;" parent="nyaTjZ3TQLkW-7M9qu4o-37" vertex="1">
          <mxGeometry y="134.55737704918033" width="210" height="32.81967213114754" as="geometry" />
        </mxCell>
        <mxCell id="nyaTjZ3TQLkW-7M9qu4o-46" value="1" style="endArrow=open;html=1;endSize=12;startArrow=diamondThin;startSize=14;startFill=1;align=left;verticalAlign=bottom;rounded=0;exitX=1;exitY=0.5;exitDx=0;exitDy=0;entryX=0;entryY=0.5;entryDx=0;entryDy=0;" parent="nyaTjZ3TQLkW-7M9qu4o-112" source="nyaTjZ3TQLkW-7M9qu4o-44" target="nyaTjZ3TQLkW-7M9qu4o-39" edge="1">
          <mxGeometry x="-1" y="3" relative="1" as="geometry">
            <mxPoint x="780" y="176.72131147540983" as="sourcePoint" />
            <mxPoint x="940" y="176.72131147540983" as="targetPoint" />
          </mxGeometry>
        </mxCell>
        <mxCell id="nyaTjZ3TQLkW-7M9qu4o-49" value="AnoEscolar" style="swimlane;fontStyle=1;align=center;verticalAlign=top;childLayout=stackLayout;horizontal=1;startSize=26;horizontalStack=0;resizeParent=1;resizeParentMax=0;resizeLast=0;collapsible=1;marginBottom=0;whiteSpace=wrap;html=1;" parent="nyaTjZ3TQLkW-7M9qu4o-112" vertex="1">
          <mxGeometry x="1040" y="77.85245901639348" width="200" height="134.55737704918033" as="geometry" />
        </mxCell>
        <mxCell id="nyaTjZ3TQLkW-7M9qu4o-50" value="+ Id: Guid" style="text;strokeColor=none;fillColor=none;align=left;verticalAlign=top;spacingLeft=4;spacingRight=4;overflow=hidden;rotatable=0;points=[[0,0.5],[1,0.5]];portConstraint=eastwest;whiteSpace=wrap;html=1;" parent="nyaTjZ3TQLkW-7M9qu4o-49" vertex="1">
          <mxGeometry y="26" width="200" height="32.81967213114754" as="geometry" />
        </mxCell>
        <mxCell id="nyaTjZ3TQLkW-7M9qu4o-51" value="+ Descricao: String" style="text;strokeColor=none;fillColor=none;align=left;verticalAlign=top;spacingLeft=4;spacingRight=4;overflow=hidden;rotatable=0;points=[[0,0.5],[1,0.5]];portConstraint=eastwest;whiteSpace=wrap;html=1;" parent="nyaTjZ3TQLkW-7M9qu4o-49" vertex="1">
          <mxGeometry y="58.81967213114754" width="200" height="32.81967213114754" as="geometry" />
        </mxCell>
        <mxCell id="nyaTjZ3TQLkW-7M9qu4o-52" value="+ Etapa: String" style="text;strokeColor=none;fillColor=none;align=left;verticalAlign=top;spacingLeft=4;spacingRight=4;overflow=hidden;rotatable=0;points=[[0,0.5],[1,0.5]];portConstraint=eastwest;whiteSpace=wrap;html=1;" parent="nyaTjZ3TQLkW-7M9qu4o-49" vertex="1">
          <mxGeometry y="91.63934426229508" width="200" height="32.81967213114754" as="geometry" />
        </mxCell>
        <mxCell id="nyaTjZ3TQLkW-7M9qu4o-53" value="" style="line;strokeWidth=1;fillColor=none;align=left;verticalAlign=middle;spacingTop=-1;spacingLeft=3;spacingRight=3;rotatable=0;labelPosition=right;points=[];portConstraint=eastwest;strokeColor=inherit;" parent="nyaTjZ3TQLkW-7M9qu4o-49" vertex="1">
          <mxGeometry y="124.45901639344262" width="200" height="10.098360655737705" as="geometry" />
        </mxCell>
        <mxCell id="nyaTjZ3TQLkW-7M9qu4o-55" value="Relation" style="endArrow=open;html=1;endSize=12;startArrow=diamondThin;startSize=14;startFill=0;rounded=0;exitX=1;exitY=0.5;exitDx=0;exitDy=0;entryX=-0.02;entryY=0.115;entryDx=0;entryDy=0;entryPerimeter=0;" parent="nyaTjZ3TQLkW-7M9qu4o-112" source="nyaTjZ3TQLkW-7M9qu4o-47" target="nyaTjZ3TQLkW-7M9qu4o-51" edge="1">
          <mxGeometry relative="1" as="geometry">
            <mxPoint x="1180" y="164.09836065573768" as="sourcePoint" />
            <mxPoint x="1340" y="164.09836065573768" as="targetPoint" />
          </mxGeometry>
        </mxCell>
        <mxCell id="nyaTjZ3TQLkW-7M9qu4o-56" value="0..n" style="edgeLabel;resizable=0;html=1;align=left;verticalAlign=top;" parent="nyaTjZ3TQLkW-7M9qu4o-55" connectable="0" vertex="1">
          <mxGeometry x="-1" relative="1" as="geometry" />
        </mxCell>
        <mxCell id="nyaTjZ3TQLkW-7M9qu4o-57" value="1" style="edgeLabel;resizable=0;html=1;align=right;verticalAlign=top;" parent="nyaTjZ3TQLkW-7M9qu4o-55" connectable="0" vertex="1">
          <mxGeometry x="1" relative="1" as="geometry" />
        </mxCell>
        <mxCell id="nyaTjZ3TQLkW-7M9qu4o-58" value="Escola" style="swimlane;fontStyle=1;align=center;verticalAlign=top;childLayout=stackLayout;horizontal=1;startSize=26;horizontalStack=0;resizeParent=1;resizeParentMax=0;resizeLast=0;collapsible=1;marginBottom=0;whiteSpace=wrap;html=1;" parent="nyaTjZ3TQLkW-7M9qu4o-112" vertex="1">
          <mxGeometry x="360" y="65.22950819672133" width="200" height="101.73770491803279" as="geometry" />
        </mxCell>
        <mxCell id="nyaTjZ3TQLkW-7M9qu4o-59" value="+ Id: Guid" style="text;strokeColor=none;fillColor=none;align=left;verticalAlign=top;spacingLeft=4;spacingRight=4;overflow=hidden;rotatable=0;points=[[0,0.5],[1,0.5]];portConstraint=eastwest;whiteSpace=wrap;html=1;" parent="nyaTjZ3TQLkW-7M9qu4o-58" vertex="1">
          <mxGeometry y="26" width="200" height="32.81967213114754" as="geometry" />
        </mxCell>
        <mxCell id="nyaTjZ3TQLkW-7M9qu4o-60" value="+ Nome: String" style="text;strokeColor=none;fillColor=none;align=left;verticalAlign=top;spacingLeft=4;spacingRight=4;overflow=hidden;rotatable=0;points=[[0,0.5],[1,0.5]];portConstraint=eastwest;whiteSpace=wrap;html=1;" parent="nyaTjZ3TQLkW-7M9qu4o-58" vertex="1">
          <mxGeometry y="58.81967213114754" width="200" height="32.81967213114754" as="geometry" />
        </mxCell>
        <mxCell id="nyaTjZ3TQLkW-7M9qu4o-62" value="" style="line;strokeWidth=1;fillColor=none;align=left;verticalAlign=middle;spacingTop=-1;spacingLeft=3;spacingRight=3;rotatable=0;labelPosition=right;points=[];portConstraint=eastwest;strokeColor=inherit;" parent="nyaTjZ3TQLkW-7M9qu4o-58" vertex="1">
          <mxGeometry y="91.63934426229508" width="200" height="10.098360655737705" as="geometry" />
        </mxCell>
        <mxCell id="nyaTjZ3TQLkW-7M9qu4o-63" value="Endereco" style="swimlane;fontStyle=1;align=center;verticalAlign=top;childLayout=stackLayout;horizontal=1;startSize=26;horizontalStack=0;resizeParent=1;resizeParentMax=0;resizeLast=0;collapsible=1;marginBottom=0;whiteSpace=wrap;html=1;" parent="nyaTjZ3TQLkW-7M9qu4o-112" vertex="1">
          <mxGeometry x="70" y="65.22950819672133" width="210" height="233.01639344262296" as="geometry" />
        </mxCell>
        <mxCell id="nyaTjZ3TQLkW-7M9qu4o-64" value="+ Numero: string" style="text;strokeColor=none;fillColor=none;align=left;verticalAlign=top;spacingLeft=4;spacingRight=4;overflow=hidden;rotatable=0;points=[[0,0.5],[1,0.5]];portConstraint=eastwest;whiteSpace=wrap;html=1;" parent="nyaTjZ3TQLkW-7M9qu4o-63" vertex="1">
          <mxGeometry y="26" width="210" height="32.81967213114754" as="geometry" />
        </mxCell>
        <mxCell id="nyaTjZ3TQLkW-7M9qu4o-65" value="+ Logradouro: string" style="text;strokeColor=none;fillColor=none;align=left;verticalAlign=top;spacingLeft=4;spacingRight=4;overflow=hidden;rotatable=0;points=[[0,0.5],[1,0.5]];portConstraint=eastwest;whiteSpace=wrap;html=1;" parent="nyaTjZ3TQLkW-7M9qu4o-63" vertex="1">
          <mxGeometry y="58.81967213114754" width="210" height="32.81967213114754" as="geometry" />
        </mxCell>
        <mxCell id="nyaTjZ3TQLkW-7M9qu4o-66" value="+ Complemento: string" style="text;strokeColor=none;fillColor=none;align=left;verticalAlign=top;spacingLeft=4;spacingRight=4;overflow=hidden;rotatable=0;points=[[0,0.5],[1,0.5]];portConstraint=eastwest;whiteSpace=wrap;html=1;" parent="nyaTjZ3TQLkW-7M9qu4o-63" vertex="1">
          <mxGeometry y="91.63934426229508" width="210" height="32.81967213114754" as="geometry" />
        </mxCell>
        <mxCell id="nyaTjZ3TQLkW-7M9qu4o-67" value="+ Bairro: string" style="text;strokeColor=none;fillColor=none;align=left;verticalAlign=top;spacingLeft=4;spacingRight=4;overflow=hidden;rotatable=0;points=[[0,0.5],[1,0.5]];portConstraint=eastwest;whiteSpace=wrap;html=1;" parent="nyaTjZ3TQLkW-7M9qu4o-63" vertex="1">
          <mxGeometry y="124.45901639344262" width="210" height="32.81967213114754" as="geometry" />
        </mxCell>
        <mxCell id="nyaTjZ3TQLkW-7M9qu4o-68" value="+ Cep: Cep" style="text;strokeColor=none;fillColor=none;align=left;verticalAlign=top;spacingLeft=4;spacingRight=4;overflow=hidden;rotatable=0;points=[[0,0.5],[1,0.5]];portConstraint=eastwest;whiteSpace=wrap;html=1;" parent="nyaTjZ3TQLkW-7M9qu4o-63" vertex="1">
          <mxGeometry y="157.27868852459017" width="210" height="32.81967213114754" as="geometry" />
        </mxCell>
        <mxCell id="nyaTjZ3TQLkW-7M9qu4o-69" value="+ Estado: string" style="text;strokeColor=none;fillColor=none;align=left;verticalAlign=top;spacingLeft=4;spacingRight=4;overflow=hidden;rotatable=0;points=[[0,0.5],[1,0.5]];portConstraint=eastwest;whiteSpace=wrap;html=1;" parent="nyaTjZ3TQLkW-7M9qu4o-63" vertex="1">
          <mxGeometry y="190.0983606557377" width="210" height="32.81967213114754" as="geometry" />
        </mxCell>
        <mxCell id="nyaTjZ3TQLkW-7M9qu4o-70" value="" style="line;strokeWidth=1;fillColor=none;align=left;verticalAlign=middle;spacingTop=-1;spacingLeft=3;spacingRight=3;rotatable=0;labelPosition=right;points=[];portConstraint=eastwest;strokeColor=inherit;" parent="nyaTjZ3TQLkW-7M9qu4o-63" vertex="1">
          <mxGeometry y="222.91803278688525" width="210" height="10.098360655737705" as="geometry" />
        </mxCell>
        <mxCell id="nyaTjZ3TQLkW-7M9qu4o-71" value="1" style="endArrow=open;html=1;endSize=12;startArrow=diamondThin;startSize=14;startFill=1;align=left;verticalAlign=bottom;rounded=0;entryX=1.001;entryY=0.962;entryDx=0;entryDy=0;exitX=-0.016;exitY=-0.038;exitDx=0;exitDy=0;exitPerimeter=0;entryPerimeter=0;" parent="nyaTjZ3TQLkW-7M9qu4o-112" source="nyaTjZ3TQLkW-7M9qu4o-60" target="nyaTjZ3TQLkW-7M9qu4o-64" edge="1">
          <mxGeometry x="-1" y="3" relative="1" as="geometry">
            <mxPoint x="790" y="37.86885245901641" as="sourcePoint" />
            <mxPoint x="950" y="37.86885245901641" as="targetPoint" />
          </mxGeometry>
        </mxCell>
        <mxCell id="nyaTjZ3TQLkW-7M9qu4o-72" value="1" style="endArrow=open;html=1;endSize=12;startArrow=diamondThin;startSize=14;startFill=1;align=left;verticalAlign=bottom;rounded=0;exitX=0;exitY=0.5;exitDx=0;exitDy=0;entryX=1;entryY=0.5;entryDx=0;entryDy=0;" parent="nyaTjZ3TQLkW-7M9qu4o-112" source="nyaTjZ3TQLkW-7M9qu4o-47" target="nyaTjZ3TQLkW-7M9qu4o-60" edge="1">
          <mxGeometry x="-1" y="3" relative="1" as="geometry">
            <mxPoint x="530" y="37.86885245901641" as="sourcePoint" />
            <mxPoint x="690" y="37.86885245901641" as="targetPoint" />
          </mxGeometry>
        </mxCell>
        <mxCell id="nyaTjZ3TQLkW-7M9qu4o-74" value="Extends" style="endArrow=block;endSize=16;endFill=0;html=1;rounded=0;entryX=-0.019;entryY=1.082;entryDx=0;entryDy=0;entryPerimeter=0;exitX=0.75;exitY=0;exitDx=0;exitDy=0;" parent="1" source="0206CihBlVpD9PxTzJTC-7" target="nyaTjZ3TQLkW-7M9qu4o-6" edge="1">
          <mxGeometry width="160" relative="1" as="geometry">
            <mxPoint x="490" y="370" as="sourcePoint" />
            <mxPoint x="650" y="370" as="targetPoint" />
          </mxGeometry>
        </mxCell>
        <mxCell id="nyaTjZ3TQLkW-7M9qu4o-114" value="" style="group" parent="1" vertex="1" connectable="0">
          <mxGeometry x="400" y="570" width="830" height="610" as="geometry" />
        </mxCell>
        <mxCell id="nyaTjZ3TQLkW-7M9qu4o-113" value="AVALIAÇÃO DE DESEMPENHO" style="shape=module;align=left;spacingLeft=20;align=center;verticalAlign=top;whiteSpace=wrap;html=1;" parent="nyaTjZ3TQLkW-7M9qu4o-114" vertex="1">
          <mxGeometry width="830" height="610" as="geometry" />
        </mxCell>
        <mxCell id="nyaTjZ3TQLkW-7M9qu4o-79" value="Tarefa" style="swimlane;fontStyle=1;align=center;verticalAlign=top;childLayout=stackLayout;horizontal=1;startSize=26;horizontalStack=0;resizeParent=1;resizeParentMax=0;resizeLast=0;collapsible=1;marginBottom=0;whiteSpace=wrap;html=1;" parent="nyaTjZ3TQLkW-7M9qu4o-114" vertex="1">
          <mxGeometry x="173" y="70.00262295081961" width="200" height="233.01639344262296" as="geometry" />
        </mxCell>
        <mxCell id="nyaTjZ3TQLkW-7M9qu4o-80" value="+ Descricao: String" style="text;strokeColor=none;fillColor=none;align=left;verticalAlign=top;spacingLeft=4;spacingRight=4;overflow=hidden;rotatable=0;points=[[0,0.5],[1,0.5]];portConstraint=eastwest;whiteSpace=wrap;html=1;" parent="nyaTjZ3TQLkW-7M9qu4o-79" vertex="1">
          <mxGeometry y="26" width="200" height="32.81967213114754" as="geometry" />
        </mxCell>
        <mxCell id="nyaTjZ3TQLkW-7M9qu4o-83" value="+ Turma: Turma" style="text;strokeColor=none;fillColor=none;align=left;verticalAlign=top;spacingLeft=4;spacingRight=4;overflow=hidden;rotatable=0;points=[[0,0.5],[1,0.5]];portConstraint=eastwest;whiteSpace=wrap;html=1;" parent="nyaTjZ3TQLkW-7M9qu4o-79" vertex="1">
          <mxGeometry y="58.81967213114754" width="200" height="32.81967213114754" as="geometry" />
        </mxCell>
        <mxCell id="nyaTjZ3TQLkW-7M9qu4o-92" value="+ Conteudo: String" style="text;strokeColor=none;fillColor=none;align=left;verticalAlign=top;spacingLeft=4;spacingRight=4;overflow=hidden;rotatable=0;points=[[0,0.5],[1,0.5]];portConstraint=eastwest;whiteSpace=wrap;html=1;" parent="nyaTjZ3TQLkW-7M9qu4o-79" vertex="1">
          <mxGeometry y="91.63934426229508" width="200" height="32.81967213114754" as="geometry" />
        </mxCell>
        <mxCell id="nyaTjZ3TQLkW-7M9qu4o-81" value="+ Peso: Double" style="text;strokeColor=none;fillColor=none;align=left;verticalAlign=top;spacingLeft=4;spacingRight=4;overflow=hidden;rotatable=0;points=[[0,0.5],[1,0.5]];portConstraint=eastwest;whiteSpace=wrap;html=1;" parent="nyaTjZ3TQLkW-7M9qu4o-79" vertex="1">
          <mxGeometry y="124.45901639344262" width="200" height="32.81967213114754" as="geometry" />
        </mxCell>
        <mxCell id="nyaTjZ3TQLkW-7M9qu4o-84" value="" style="line;strokeWidth=1;fillColor=none;align=left;verticalAlign=middle;spacingTop=-1;spacingLeft=3;spacingRight=3;rotatable=0;labelPosition=right;points=[];portConstraint=eastwest;strokeColor=inherit;" parent="nyaTjZ3TQLkW-7M9qu4o-79" vertex="1">
          <mxGeometry y="157.27868852459017" width="200" height="10.098360655737705" as="geometry" />
        </mxCell>
        <mxCell id="nyaTjZ3TQLkW-7M9qu4o-85" value="+ Adicionar(Resposta): void" style="text;strokeColor=none;fillColor=none;align=left;verticalAlign=top;spacingLeft=4;spacingRight=4;overflow=hidden;rotatable=0;points=[[0,0.5],[1,0.5]];portConstraint=eastwest;whiteSpace=wrap;html=1;" parent="nyaTjZ3TQLkW-7M9qu4o-79" vertex="1">
          <mxGeometry y="167.37704918032787" width="200" height="32.81967213114754" as="geometry" />
        </mxCell>
        <mxCell id="nyaTjZ3TQLkW-7M9qu4o-97" value="+ CalcularMedia(): void" style="text;strokeColor=none;fillColor=none;align=left;verticalAlign=top;spacingLeft=4;spacingRight=4;overflow=hidden;rotatable=0;points=[[0,0.5],[1,0.5]];portConstraint=eastwest;whiteSpace=wrap;html=1;" parent="nyaTjZ3TQLkW-7M9qu4o-79" vertex="1">
          <mxGeometry y="200.19672131147541" width="200" height="32.81967213114754" as="geometry" />
        </mxCell>
        <mxCell id="nyaTjZ3TQLkW-7M9qu4o-86" value="Resposta" style="swimlane;fontStyle=1;align=center;verticalAlign=top;childLayout=stackLayout;horizontal=1;startSize=26;horizontalStack=0;resizeParent=1;resizeParentMax=0;resizeLast=0;collapsible=1;marginBottom=0;whiteSpace=wrap;html=1;" parent="nyaTjZ3TQLkW-7M9qu4o-114" vertex="1">
          <mxGeometry x="170" y="410.0031147540983" width="200" height="167.37704918032787" as="geometry" />
        </mxCell>
        <mxCell id="nyaTjZ3TQLkW-7M9qu4o-87" value="+ Aluno: Usuario" style="text;strokeColor=none;fillColor=none;align=left;verticalAlign=top;spacingLeft=4;spacingRight=4;overflow=hidden;rotatable=0;points=[[0,0.5],[1,0.5]];portConstraint=eastwest;whiteSpace=wrap;html=1;" parent="nyaTjZ3TQLkW-7M9qu4o-86" vertex="1">
          <mxGeometry y="26" width="200" height="32.81967213114754" as="geometry" />
        </mxCell>
        <mxCell id="nyaTjZ3TQLkW-7M9qu4o-88" value="+ Valor: Double" style="text;strokeColor=none;fillColor=none;align=left;verticalAlign=top;spacingLeft=4;spacingRight=4;overflow=hidden;rotatable=0;points=[[0,0.5],[1,0.5]];portConstraint=eastwest;whiteSpace=wrap;html=1;" parent="nyaTjZ3TQLkW-7M9qu4o-86" vertex="1">
          <mxGeometry y="58.81967213114754" width="200" height="32.81967213114754" as="geometry" />
        </mxCell>
        <mxCell id="nyaTjZ3TQLkW-7M9qu4o-90" value="" style="line;strokeWidth=1;fillColor=none;align=left;verticalAlign=middle;spacingTop=-1;spacingLeft=3;spacingRight=3;rotatable=0;labelPosition=right;points=[];portConstraint=eastwest;strokeColor=inherit;" parent="nyaTjZ3TQLkW-7M9qu4o-86" vertex="1">
          <mxGeometry y="91.63934426229508" width="200" height="10.098360655737705" as="geometry" />
        </mxCell>
        <mxCell id="nyaTjZ3TQLkW-7M9qu4o-91" value="+ AtribuirValor(valor): void" style="text;strokeColor=none;fillColor=none;align=left;verticalAlign=top;spacingLeft=4;spacingRight=4;overflow=hidden;rotatable=0;points=[[0,0.5],[1,0.5]];portConstraint=eastwest;whiteSpace=wrap;html=1;" parent="nyaTjZ3TQLkW-7M9qu4o-86" vertex="1">
          <mxGeometry y="101.73770491803279" width="200" height="32.81967213114754" as="geometry" />
        </mxCell>
        <mxCell id="nyaTjZ3TQLkW-7M9qu4o-100" value="+ ExibirConceito(): void" style="text;strokeColor=none;fillColor=none;align=left;verticalAlign=top;spacingLeft=4;spacingRight=4;overflow=hidden;rotatable=0;points=[[0,0.5],[1,0.5]];portConstraint=eastwest;whiteSpace=wrap;html=1;" parent="nyaTjZ3TQLkW-7M9qu4o-86" vertex="1">
          <mxGeometry y="134.55737704918033" width="200" height="32.81967213114754" as="geometry" />
        </mxCell>
        <mxCell id="nyaTjZ3TQLkW-7M9qu4o-96" value="1" style="endArrow=open;html=1;endSize=12;startArrow=diamondThin;startSize=14;startFill=0;align=left;verticalAlign=bottom;rounded=0;entryX=0.5;entryY=0;entryDx=0;entryDy=0;exitX=0.473;exitY=1.055;exitDx=0;exitDy=0;exitPerimeter=0;" parent="nyaTjZ3TQLkW-7M9qu4o-114" source="nyaTjZ3TQLkW-7M9qu4o-97" target="nyaTjZ3TQLkW-7M9qu4o-86" edge="1">
          <mxGeometry x="-1" y="3" relative="1" as="geometry">
            <mxPoint x="-222" y="154.9180327868853" as="sourcePoint" />
            <mxPoint x="-62" y="154.9180327868853" as="targetPoint" />
          </mxGeometry>
        </mxCell>
        <mxCell id="nyaTjZ3TQLkW-7M9qu4o-103" value="Relatorio" style="swimlane;fontStyle=1;align=center;verticalAlign=top;childLayout=stackLayout;horizontal=1;startSize=26;horizontalStack=0;resizeParent=1;resizeParentMax=0;resizeLast=0;collapsible=1;marginBottom=0;whiteSpace=wrap;html=1;" parent="nyaTjZ3TQLkW-7M9qu4o-114" vertex="1">
          <mxGeometry x="483" y="70.00262295081961" width="200" height="200.19672131147541" as="geometry" />
        </mxCell>
        <mxCell id="nyaTjZ3TQLkW-7M9qu4o-104" value="+ Escola: Escola" style="text;strokeColor=none;fillColor=none;align=left;verticalAlign=top;spacingLeft=4;spacingRight=4;overflow=hidden;rotatable=0;points=[[0,0.5],[1,0.5]];portConstraint=eastwest;whiteSpace=wrap;html=1;" parent="nyaTjZ3TQLkW-7M9qu4o-103" vertex="1">
          <mxGeometry y="26" width="200" height="32.81967213114754" as="geometry" />
        </mxCell>
        <mxCell id="nyaTjZ3TQLkW-7M9qu4o-105" value="+ Turma: Turma" style="text;strokeColor=none;fillColor=none;align=left;verticalAlign=top;spacingLeft=4;spacingRight=4;overflow=hidden;rotatable=0;points=[[0,0.5],[1,0.5]];portConstraint=eastwest;whiteSpace=wrap;html=1;" parent="nyaTjZ3TQLkW-7M9qu4o-103" vertex="1">
          <mxGeometry y="58.81967213114754" width="200" height="32.81967213114754" as="geometry" />
        </mxCell>
        <mxCell id="nyaTjZ3TQLkW-7M9qu4o-106" value="+ TituloTarefa: String" style="text;strokeColor=none;fillColor=none;align=left;verticalAlign=top;spacingLeft=4;spacingRight=4;overflow=hidden;rotatable=0;points=[[0,0.5],[1,0.5]];portConstraint=eastwest;whiteSpace=wrap;html=1;" parent="nyaTjZ3TQLkW-7M9qu4o-103" vertex="1">
          <mxGeometry y="91.63934426229508" width="200" height="32.81967213114754" as="geometry" />
        </mxCell>
        <mxCell id="nyaTjZ3TQLkW-7M9qu4o-107" value="+ ValorNota: Double" style="text;strokeColor=none;fillColor=none;align=left;verticalAlign=top;spacingLeft=4;spacingRight=4;overflow=hidden;rotatable=0;points=[[0,0.5],[1,0.5]];portConstraint=eastwest;whiteSpace=wrap;html=1;" parent="nyaTjZ3TQLkW-7M9qu4o-103" vertex="1">
          <mxGeometry y="124.45901639344262" width="200" height="32.81967213114754" as="geometry" />
        </mxCell>
        <mxCell id="nyaTjZ3TQLkW-7M9qu4o-111" value="+ Aluno: Usuario" style="text;strokeColor=none;fillColor=none;align=left;verticalAlign=top;spacingLeft=4;spacingRight=4;overflow=hidden;rotatable=0;points=[[0,0.5],[1,0.5]];portConstraint=eastwest;whiteSpace=wrap;html=1;" parent="nyaTjZ3TQLkW-7M9qu4o-103" vertex="1">
          <mxGeometry y="157.27868852459017" width="200" height="32.81967213114754" as="geometry" />
        </mxCell>
        <mxCell id="nyaTjZ3TQLkW-7M9qu4o-108" value="" style="line;strokeWidth=1;fillColor=none;align=left;verticalAlign=middle;spacingTop=-1;spacingLeft=3;spacingRight=3;rotatable=0;labelPosition=right;points=[];portConstraint=eastwest;strokeColor=inherit;" parent="nyaTjZ3TQLkW-7M9qu4o-103" vertex="1">
          <mxGeometry y="190.0983606557377" width="200" height="10.098360655737705" as="geometry" />
        </mxCell>
        <mxCell id="nyaTjZ3TQLkW-7M9qu4o-102" value="Extends" style="endArrow=block;endSize=16;endFill=0;html=1;rounded=0;entryX=0.494;entryY=1.174;entryDx=0;entryDy=0;entryPerimeter=0;exitX=0.358;exitY=0.013;exitDx=0;exitDy=0;exitPerimeter=0;" parent="1" source="nyaTjZ3TQLkW-7M9qu4o-79" target="nyaTjZ3TQLkW-7M9qu4o-6" edge="1">
          <mxGeometry width="160" relative="1" as="geometry">
            <mxPoint x="350" y="470" as="sourcePoint" />
            <mxPoint x="445" y="170" as="targetPoint" />
          </mxGeometry>
        </mxCell>
        <mxCell id="nyaTjZ3TQLkW-7M9qu4o-115" value="Extends" style="endArrow=block;endSize=16;endFill=0;html=1;rounded=0;entryX=0.494;entryY=1.174;entryDx=0;entryDy=0;entryPerimeter=0;exitX=0.5;exitY=0;exitDx=0;exitDy=0;" parent="1" source="nyaTjZ3TQLkW-7M9qu4o-103" edge="1">
          <mxGeometry width="160" relative="1" as="geometry">
            <mxPoint x="746" y="638" as="sourcePoint" />
            <mxPoint x="540" y="48" as="targetPoint" />
          </mxGeometry>
        </mxCell>
      </root>
    </mxGraphModel>
  </diagram>
</mxfile>
